ply
format ascii 1.0
element vertex 30
property float32 x
property float32 y
property float32 z
end_header
-.02612 .24863 0.0
-.05197 .24453 0.0
-.07725 .23776 0.0
-.10168 .22838 0.0
-.12499 .21650 0.0
-.14694 .20225 0.0
-.16727 .18578 0.0
-.18578 .16728 0.0
-.20225 .14694 0.0
-.21650 .12500 0.0
-.22838 .10168 0.0
-.23776 .07725 0.0
-.24453 .05198 0.0
-.24863 .02613 0.0
-.25000 0 0.0
-.20000 0 0.0
-.19890 .02090 0.0
-.19562 .04158 0.0
-.19021 .06180 0.0
-.18270 .08134 0.0
-.17320 .10000 0.0
-.16180 .11755 0.0
-.14862 .13382 0.0
-.13382 .14863 0.0
-.11755 .16180 0.0
-.09999 .17320 0.0
-.08134 .18271 0.0
-.06180 .19021 0.0
-.04157 .19563 0.0
-.02090 .19890 0.0