ply
format ascii 1.0
element vertex 30
property float32 x
property float32 y
property float32 z
end_header
-.02090 .19890 0.0
-.04157 .19563 0.0
-.06180 .19021 0.0
-.08134 .18271 0.0
-.09999 .17320 0.0
-.11755 .16180 0.0
-.13382 .14863 0.0
-.14862 .13382 0.0
-.16180 .11755 0.0
-.17320 .10000 0.0
-.18270 .08134 0.0
-.19021 .06180 0.0
-.19562 .04158 0.0
-.19890 .02090 0.0
-.20000 0 0.0
-.19890 -.02090 0.0
-.19563 -.04158 0.0
-.19021 -.06180 0.0
-.18271 -.08134 0.0
-.17320 -.09999 0.0
-.16180 -.11755 0.0
-.14863 -.13382 0.0
-.13382 -.14862 0.0
-.11755 -.16180 0.0
-.10000 -.17320 0.0
-.08134 -.18270 0.0
-.06180 -.19021 0.0
-.04158 -.19562 0.0
-.02090 -.19890 0.0
0 -.20000 0.0