ply
format ascii 1.0
element vertex 30
property float32 x
property float32 y
property float32 z
end_header
0 -.25000 0.0
-.02613 -.24863 0.0
-.05198 -.24453 0.0
-.07725 -.23776 0.0
-.10168 -.22838 0.0
-.12500 -.21650 0.0
-.14694 -.20225 0.0
-.16728 -.18578 0.0
-.18578 -.16728 0.0
-.20225 -.14694 0.0
-.21650 -.12499 0.0
-.22838 -.10168 0.0
-.23776 -.07725 0.0
-.24453 -.05197 0.0
-.24863 -.02612 0.0
-.25000 0 0.0
-.24863 .02613 0.0
-.24453 .05198 0.0
-.23776 .07725 0.0
-.22838 .10168 0.0
-.21650 .12500 0.0
-.20225 .14694 0.0
-.18578 .16728 0.0
-.16727 .18578 0.0
-.14694 .20225 0.0
-.12499 .21650 0.0
-.10168 .22838 0.0
-.07725 .23776 0.0
-.05197 .24453 0.0
-.02612 .24863 0.0